<svg id="Capa_1" data-name="Capa 1" xmlns="http://www.w3.org/2000/svg" viewBox="0 0 1353 807"><defs><style>.cls-1{fill:#fff;}</style></defs><path class="cls-1" d="M1161,322.39A162.74,162.74,0,0,0,969.8,169.74C945.94,75.31,860.43,5.42,758.59,5.42c-96.52,0-178.36,62.77-207,149.71A162.64,162.64,0,0,0,288.39,330a217.66,217.66,0,0,0-64.94-9.85C103.13,320.13,5.6,417.66,5.6,538s97.53,217.84,217.85,217.84a217.15,217.15,0,0,0,156.69-66.53,217.87,217.87,0,0,0,360.25,31.09,138.93,138.93,0,0,0,232.73-30.81,217.21,217.21,0,0,0,156.43,66.25c120.32,0,217.85-97.53,217.85-217.84C1347.4,428.33,1266.39,337.61,1161,322.39Z"/></svg>